# xmcd CD database file
#
# Track frame offsets:
#	150
#	24248
#	44937
#	74398
#	83501
#	110991
#	136542
#	157024
#	165558
#	192868
#	221419
#	253819
#	267887
#	291990
#
# Disc length: 4164 seconds
#
# Revision: 1
# Processed by: cddbd v1.5.2PL0 Copyright (c) Steve Scherf et al.
# Submitted via: CDex 2.14
#
DISCID=cd10420e
DTITLE=Utah Jazz - SPEAR056 - Utah Jazz - Portfolio - Mastered
DYEAR=2014
DGENRE=Jazz
TTITLE0=Utah Jazz - Endless feat. LaMeduza
TTITLE1=Utah Jazz - We Rise We Fall
TTITLE2=Utah Jazz - January Silence
TTITLE3=Utah Jazz - STR Piano Interlude
TTITLE4=Utah Jazz - Live Your Life
TTITLE5=Utah Jazz - Clarity Of Thought
TTITLE6=Utah Jazz - Roll That Blues feat. MC Fava
TTITLE7=Utah Jazz - The Record Business Interlude
TTITLE8=Utah Jazz - Here Today, Gone Tomorrow
TTITLE9=Utah Jazz - Neckless
TTITLE10=Utah Jazz - M.A.M
TTITLE11=Utah Jazz - Passage Of Time
TTITLE12=Utah Jazz - You Walked Away feat. Hannah Eve
TTITLE13=Utah Jazz - Love Everlasting
EXTD=YEAR: 2014
EXTT0=
EXTT1=
EXTT2=
EXTT3=
EXTT4=
EXTT5=
EXTT6=
EXTT7=
EXTT8=
EXTT9=
EXTT10=
EXTT11=
EXTT12=
EXTT13=
PLAYORDER=
